# xmcd
#
# Track frame offsets:
#	150
#	43188
#	74735
#	94847
#	116653
#	143747
#	161766
#	186162
#	205143
#	221436
#	246804
#	273777
#	300591
#
# Disc length: 4316 seconds
#
# Revision: 0
# Processed by: cddbd v1.5.1PL2 Copyright (c) Steve Scherf et al.
# Submitted via: audiograbber 1.83.01
#
DISCID=c110da0d
DTITLE=John Mayell - Best of
DYEAR=1900
DGENRE=Rock
TTITLE0=California
TTITLE1=Television Eye
TTITLE2=The death of J. B. Lenior
TTITLE3=Saw mill gulch road
TTITLE4=Natures disappearing
TTITLE5=You must be crazy
TTITLE6=Night flyers
TTITLE7=Possesive emotions
TTITLE8=Took the car
TTITLE9=All you love
TTITLE10=Tears come rolling down
TTITLE11=Have you heard
TTITLE12=Cold blooded woman
EXTD=
EXTT0=
EXTT1=
EXTT2=
EXTT3=
EXTT4=
EXTT5=
EXTT6=
EXTT7=
EXTT8=
EXTT9=
EXTT10=
EXTT11=
EXTT12=
PLAYORDER=
